# xmcd
#
# Track frame offsets:
#	150
#	14250
#	30676
#	43051
#	57788
#	70313
#	82541
#	93975
#	107682
#	123122
#	133294
#	146786
#	161667
#	177086
#	187510
#	198443
#	213721
#	225830
#	239372
#	252300
#	268242
#
# Disc length: 3791 seconds
#
# Revision: 1
# Processed by: cddbd v1.4PL0 Copyright (c) Steve Scherf et al.
# Submitted via: audiograbber 1.82.01
#
DISCID=1d0ecd15
DTITLE=Roger WHITTAKER - Songs for you
DYEAR=2002
DGENRE=
TTITLE0=River lady
TTITLE1=The last farwell
TTITLE2=The sky boat song
TTITLE3=I don't believe in if anymore
TTITLE4=Morning has broken
TTITLE5=Moon shadow
TTITLE6=I believe
TTITLE7=A special kind of man
TTITLE8=Greensleeves
TTITLE9=Those were the days
TTITLE10=Fairytale
TTITLE11=You've lost that lovin' feeling
TTITLE12=Bob Dylan's dream
TTITLE13=Quel monde mer Merveilleux
TTITLE14=New world in the morning
TTITLE15=Scarborough fair canticle
TTITLE16=Swaggy
TTITLE17=I dreamed a dream
TTITLE18=San Diego wine
TTITLE19=What i left behind
TTITLE20=A song for you
EXTD=
EXTT0=
EXTT1=
EXTT2=
EXTT3=
EXTT4=
EXTT5=
EXTT6=
EXTT7=
EXTT8=
EXTT9=
EXTT10=
EXTT11=
EXTT12=
EXTT13=
EXTT14=
EXTT15=
EXTT16=
EXTT17=
EXTT18=
EXTT19=
EXTT20=
PLAYORDER=
